<mxfile host="app.diagrams.net" modified="2023-08-21T13:13:20.881Z" agent="Mozilla/5.0 (Windows NT 10.0; Win64; x64) AppleWebKit/537.36 (KHTML, like Gecko) Chrome/115.0.0.0 Safari/537.36" etag="xQGmfdbvun1vXglBkplK" version="21.6.8" type="device">
  <diagram name="PÃ¡gina-1" id="nWHhpeARet2oc0giQ5gP">
    <mxGraphModel dx="577" dy="477" grid="1" gridSize="10" guides="1" tooltips="1" connect="1" arrows="1" fold="1" page="1" pageScale="1" pageWidth="827" pageHeight="1169" math="0" shadow="0">
      <root>
        <mxCell id="0" />
        <mxCell id="1" parent="0" />
        <mxCell id="GbOU0gRS2y6bCKz0cwMV-35" style="edgeStyle=orthogonalEdgeStyle;rounded=0;orthogonalLoop=1;jettySize=auto;html=1;entryX=0;entryY=0.5;entryDx=0;entryDy=0;dashed=1;dashPattern=12 12;startArrow=ERone;startFill=0;endArrow=ERmany;endFill=0;" edge="1" parent="1" source="GbOU0gRS2y6bCKz0cwMV-5" target="GbOU0gRS2y6bCKz0cwMV-12">
          <mxGeometry relative="1" as="geometry" />
        </mxCell>
        <mxCell id="GbOU0gRS2y6bCKz0cwMV-5" value="Usuario" style="swimlane;fontStyle=0;childLayout=stackLayout;horizontal=1;startSize=30;horizontalStack=0;resizeParent=1;resizeParentMax=0;resizeLast=0;collapsible=1;marginBottom=0;whiteSpace=wrap;html=1;" vertex="1" parent="1">
          <mxGeometry x="40" y="200" width="240" height="180" as="geometry" />
        </mxCell>
        <mxCell id="GbOU0gRS2y6bCKz0cwMV-6" value="PK:int&lt;span style=&quot;white-space: pre;&quot;&gt;&#x9;&lt;/span&gt;Id" style="text;strokeColor=none;fillColor=none;align=left;verticalAlign=middle;spacingLeft=4;spacingRight=4;overflow=hidden;points=[[0,0.5],[1,0.5]];portConstraint=eastwest;rotatable=0;whiteSpace=wrap;html=1;" vertex="1" parent="GbOU0gRS2y6bCKz0cwMV-5">
          <mxGeometry y="30" width="240" height="30" as="geometry" />
        </mxCell>
        <mxCell id="GbOU0gRS2y6bCKz0cwMV-7" value="NN:varchar(30) Login" style="text;strokeColor=none;fillColor=none;align=left;verticalAlign=middle;spacingLeft=4;spacingRight=4;overflow=hidden;points=[[0,0.5],[1,0.5]];portConstraint=eastwest;rotatable=0;whiteSpace=wrap;html=1;" vertex="1" parent="GbOU0gRS2y6bCKz0cwMV-5">
          <mxGeometry y="60" width="240" height="30" as="geometry" />
        </mxCell>
        <mxCell id="GbOU0gRS2y6bCKz0cwMV-8" value="NN:varchar(32) Password" style="text;strokeColor=none;fillColor=none;align=left;verticalAlign=middle;spacingLeft=4;spacingRight=4;overflow=hidden;points=[[0,0.5],[1,0.5]];portConstraint=eastwest;rotatable=0;whiteSpace=wrap;html=1;" vertex="1" parent="GbOU0gRS2y6bCKz0cwMV-5">
          <mxGeometry y="90" width="240" height="30" as="geometry" />
        </mxCell>
        <mxCell id="GbOU0gRS2y6bCKz0cwMV-9" value="NN:varchar(40)&amp;nbsp; Nickname" style="text;strokeColor=none;fillColor=none;align=left;verticalAlign=middle;spacingLeft=4;spacingRight=4;overflow=hidden;points=[[0,0.5],[1,0.5]];portConstraint=eastwest;rotatable=0;whiteSpace=wrap;html=1;" vertex="1" parent="GbOU0gRS2y6bCKz0cwMV-5">
          <mxGeometry y="120" width="240" height="30" as="geometry" />
        </mxCell>
        <mxCell id="GbOU0gRS2y6bCKz0cwMV-10" value="NN unique:varchar(40)&amp;nbsp; Email" style="text;strokeColor=none;fillColor=none;align=left;verticalAlign=middle;spacingLeft=4;spacingRight=4;overflow=hidden;points=[[0,0.5],[1,0.5]];portConstraint=eastwest;rotatable=0;whiteSpace=wrap;html=1;" vertex="1" parent="GbOU0gRS2y6bCKz0cwMV-5">
          <mxGeometry y="150" width="240" height="30" as="geometry" />
        </mxCell>
        <mxCell id="GbOU0gRS2y6bCKz0cwMV-11" value="Posts" style="swimlane;fontStyle=0;childLayout=stackLayout;horizontal=1;startSize=30;horizontalStack=0;resizeParent=1;resizeParentMax=0;resizeLast=0;collapsible=1;marginBottom=0;whiteSpace=wrap;html=1;" vertex="1" parent="1">
          <mxGeometry x="320" y="440" width="240" height="240" as="geometry" />
        </mxCell>
        <mxCell id="GbOU0gRS2y6bCKz0cwMV-12" value="PK:int&lt;span style=&quot;white-space: pre;&quot;&gt;&#x9;&lt;/span&gt;Id" style="text;strokeColor=none;fillColor=none;align=left;verticalAlign=middle;spacingLeft=4;spacingRight=4;overflow=hidden;points=[[0,0.5],[1,0.5]];portConstraint=eastwest;rotatable=0;whiteSpace=wrap;html=1;" vertex="1" parent="GbOU0gRS2y6bCKz0cwMV-11">
          <mxGeometry y="30" width="240" height="30" as="geometry" />
        </mxCell>
        <mxCell id="GbOU0gRS2y6bCKz0cwMV-13" value="varchar(150)&amp;nbsp; Titulo" style="text;strokeColor=none;fillColor=none;align=left;verticalAlign=middle;spacingLeft=4;spacingRight=4;overflow=hidden;points=[[0,0.5],[1,0.5]];portConstraint=eastwest;rotatable=0;whiteSpace=wrap;html=1;" vertex="1" parent="GbOU0gRS2y6bCKz0cwMV-11">
          <mxGeometry y="60" width="240" height="30" as="geometry" />
        </mxCell>
        <mxCell id="GbOU0gRS2y6bCKz0cwMV-14" value="timestamp:&amp;nbsp; Fecha_Publicacion" style="text;strokeColor=none;fillColor=none;align=left;verticalAlign=middle;spacingLeft=4;spacingRight=4;overflow=hidden;points=[[0,0.5],[1,0.5]];portConstraint=eastwest;rotatable=0;whiteSpace=wrap;html=1;" vertex="1" parent="GbOU0gRS2y6bCKz0cwMV-11">
          <mxGeometry y="90" width="240" height="30" as="geometry" />
        </mxCell>
        <mxCell id="GbOU0gRS2y6bCKz0cwMV-15" value="text&amp;nbsp; Contenido" style="text;strokeColor=none;fillColor=none;align=left;verticalAlign=middle;spacingLeft=4;spacingRight=4;overflow=hidden;points=[[0,0.5],[1,0.5]];portConstraint=eastwest;rotatable=0;whiteSpace=wrap;html=1;" vertex="1" parent="GbOU0gRS2y6bCKz0cwMV-11">
          <mxGeometry y="120" width="240" height="30" as="geometry" />
        </mxCell>
        <mxCell id="GbOU0gRS2y6bCKz0cwMV-16" value="check_in(&#39;activo&#39;,&#39;inactivo&#39;):char(8)&amp;nbsp; Estatus" style="text;strokeColor=none;fillColor=none;align=left;verticalAlign=middle;spacingLeft=4;spacingRight=4;overflow=hidden;points=[[0,0.5],[1,0.5]];portConstraint=eastwest;rotatable=0;whiteSpace=wrap;html=1;" vertex="1" parent="GbOU0gRS2y6bCKz0cwMV-11">
          <mxGeometry y="150" width="240" height="30" as="geometry" />
        </mxCell>
        <mxCell id="GbOU0gRS2y6bCKz0cwMV-17" value="FK:int&lt;span style=&quot;white-space: pre;&quot;&gt;&#x9;&lt;/span&gt;Usuarios_Id" style="text;strokeColor=none;fillColor=none;align=left;verticalAlign=middle;spacingLeft=4;spacingRight=4;overflow=hidden;points=[[0,0.5],[1,0.5]];portConstraint=eastwest;rotatable=0;whiteSpace=wrap;html=1;" vertex="1" parent="GbOU0gRS2y6bCKz0cwMV-11">
          <mxGeometry y="180" width="240" height="30" as="geometry" />
        </mxCell>
        <mxCell id="GbOU0gRS2y6bCKz0cwMV-18" value="FK:int&lt;span style=&quot;white-space: pre;&quot;&gt;&#x9;&lt;/span&gt;Cateriagas_Id" style="text;strokeColor=none;fillColor=none;align=left;verticalAlign=middle;spacingLeft=4;spacingRight=4;overflow=hidden;points=[[0,0.5],[1,0.5]];portConstraint=eastwest;rotatable=0;whiteSpace=wrap;html=1;" vertex="1" parent="GbOU0gRS2y6bCKz0cwMV-11">
          <mxGeometry y="210" width="240" height="30" as="geometry" />
        </mxCell>
        <mxCell id="GbOU0gRS2y6bCKz0cwMV-37" style="edgeStyle=orthogonalEdgeStyle;rounded=0;orthogonalLoop=1;jettySize=auto;html=1;entryX=1;entryY=0.5;entryDx=0;entryDy=0;dashed=1;dashPattern=12 12;startArrow=ERmany;startFill=0;endArrow=ERone;endFill=0;" edge="1" parent="1" source="GbOU0gRS2y6bCKz0cwMV-19" target="GbOU0gRS2y6bCKz0cwMV-13">
          <mxGeometry relative="1" as="geometry" />
        </mxCell>
        <mxCell id="GbOU0gRS2y6bCKz0cwMV-19" value="Comentarios" style="swimlane;fontStyle=0;childLayout=stackLayout;horizontal=1;startSize=30;horizontalStack=0;resizeParent=1;resizeParentMax=0;resizeLast=0;collapsible=1;marginBottom=0;whiteSpace=wrap;html=1;" vertex="1" parent="1">
          <mxGeometry x="600" y="240" width="200" height="150" as="geometry" />
        </mxCell>
        <mxCell id="GbOU0gRS2y6bCKz0cwMV-20" value="PK:int&lt;span style=&quot;white-space: pre;&quot;&gt;&#x9;&lt;/span&gt;Id" style="text;strokeColor=none;fillColor=none;align=left;verticalAlign=middle;spacingLeft=4;spacingRight=4;overflow=hidden;points=[[0,0.5],[1,0.5]];portConstraint=eastwest;rotatable=0;whiteSpace=wrap;html=1;" vertex="1" parent="GbOU0gRS2y6bCKz0cwMV-19">
          <mxGeometry y="30" width="200" height="30" as="geometry" />
        </mxCell>
        <mxCell id="GbOU0gRS2y6bCKz0cwMV-21" value="text&amp;nbsp; Comentario" style="text;strokeColor=none;fillColor=none;align=left;verticalAlign=middle;spacingLeft=4;spacingRight=4;overflow=hidden;points=[[0,0.5],[1,0.5]];portConstraint=eastwest;rotatable=0;whiteSpace=wrap;html=1;" vertex="1" parent="GbOU0gRS2y6bCKz0cwMV-19">
          <mxGeometry y="60" width="200" height="30" as="geometry" />
        </mxCell>
        <mxCell id="GbOU0gRS2y6bCKz0cwMV-22" value="FK:int&lt;span style=&quot;white-space: pre;&quot;&gt;&#x9;&lt;/span&gt;Usuarios_id" style="text;strokeColor=none;fillColor=none;align=left;verticalAlign=middle;spacingLeft=4;spacingRight=4;overflow=hidden;points=[[0,0.5],[1,0.5]];portConstraint=eastwest;rotatable=0;whiteSpace=wrap;html=1;" vertex="1" parent="GbOU0gRS2y6bCKz0cwMV-19">
          <mxGeometry y="90" width="200" height="30" as="geometry" />
        </mxCell>
        <mxCell id="GbOU0gRS2y6bCKz0cwMV-23" value="FK:int&lt;span style=&quot;white-space: pre;&quot;&gt;&#x9;&lt;/span&gt;Posts_Id" style="text;strokeColor=none;fillColor=none;align=left;verticalAlign=middle;spacingLeft=4;spacingRight=4;overflow=hidden;points=[[0,0.5],[1,0.5]];portConstraint=eastwest;rotatable=0;whiteSpace=wrap;html=1;" vertex="1" parent="GbOU0gRS2y6bCKz0cwMV-19">
          <mxGeometry y="120" width="200" height="30" as="geometry" />
        </mxCell>
        <mxCell id="GbOU0gRS2y6bCKz0cwMV-24" value="Categorias" style="swimlane;fontStyle=0;childLayout=stackLayout;horizontal=1;startSize=30;horizontalStack=0;resizeParent=1;resizeParentMax=0;resizeLast=0;collapsible=1;marginBottom=0;whiteSpace=wrap;html=1;" vertex="1" parent="1">
          <mxGeometry x="40" y="760" width="200" height="90" as="geometry" />
        </mxCell>
        <mxCell id="GbOU0gRS2y6bCKz0cwMV-25" value="PK:int&lt;span style=&quot;white-space: pre;&quot;&gt;&#x9;&lt;/span&gt;Id" style="text;strokeColor=none;fillColor=none;align=left;verticalAlign=middle;spacingLeft=4;spacingRight=4;overflow=hidden;points=[[0,0.5],[1,0.5]];portConstraint=eastwest;rotatable=0;whiteSpace=wrap;html=1;" vertex="1" parent="GbOU0gRS2y6bCKz0cwMV-24">
          <mxGeometry y="30" width="200" height="30" as="geometry" />
        </mxCell>
        <mxCell id="GbOU0gRS2y6bCKz0cwMV-26" value="varchar(30)&amp;nbsp; Categorias" style="text;strokeColor=none;fillColor=none;align=left;verticalAlign=middle;spacingLeft=4;spacingRight=4;overflow=hidden;points=[[0,0.5],[1,0.5]];portConstraint=eastwest;rotatable=0;whiteSpace=wrap;html=1;" vertex="1" parent="GbOU0gRS2y6bCKz0cwMV-24">
          <mxGeometry y="60" width="200" height="30" as="geometry" />
        </mxCell>
        <mxCell id="GbOU0gRS2y6bCKz0cwMV-28" value="Etiquetas" style="swimlane;fontStyle=0;childLayout=stackLayout;horizontal=1;startSize=30;horizontalStack=0;resizeParent=1;resizeParentMax=0;resizeLast=0;collapsible=1;marginBottom=0;whiteSpace=wrap;html=1;" vertex="1" parent="1">
          <mxGeometry x="600" y="760" width="200" height="90" as="geometry" />
        </mxCell>
        <mxCell id="GbOU0gRS2y6bCKz0cwMV-29" value="PK:int&lt;span style=&quot;white-space: pre;&quot;&gt;&#x9;&lt;/span&gt;Id" style="text;strokeColor=none;fillColor=none;align=left;verticalAlign=middle;spacingLeft=4;spacingRight=4;overflow=hidden;points=[[0,0.5],[1,0.5]];portConstraint=eastwest;rotatable=0;whiteSpace=wrap;html=1;" vertex="1" parent="GbOU0gRS2y6bCKz0cwMV-28">
          <mxGeometry y="30" width="200" height="30" as="geometry" />
        </mxCell>
        <mxCell id="GbOU0gRS2y6bCKz0cwMV-30" value="varchar(30)&amp;nbsp; Nombre_Etiqueta" style="text;strokeColor=none;fillColor=none;align=left;verticalAlign=middle;spacingLeft=4;spacingRight=4;overflow=hidden;points=[[0,0.5],[1,0.5]];portConstraint=eastwest;rotatable=0;whiteSpace=wrap;html=1;" vertex="1" parent="GbOU0gRS2y6bCKz0cwMV-28">
          <mxGeometry y="60" width="200" height="30" as="geometry" />
        </mxCell>
        <mxCell id="GbOU0gRS2y6bCKz0cwMV-32" style="edgeStyle=orthogonalEdgeStyle;rounded=0;orthogonalLoop=1;jettySize=auto;html=1;entryX=0.5;entryY=0;entryDx=0;entryDy=0;dashed=1;dashPattern=12 12;startArrow=ERmany;startFill=0;endArrow=ERmany;endFill=0;" edge="1" parent="1" source="GbOU0gRS2y6bCKz0cwMV-14" target="GbOU0gRS2y6bCKz0cwMV-28">
          <mxGeometry relative="1" as="geometry" />
        </mxCell>
        <mxCell id="GbOU0gRS2y6bCKz0cwMV-34" style="edgeStyle=orthogonalEdgeStyle;rounded=0;orthogonalLoop=1;jettySize=auto;html=1;entryX=0.5;entryY=0;entryDx=0;entryDy=0;dashed=1;dashPattern=12 12;startArrow=ERmany;startFill=0;endArrow=ERone;endFill=0;" edge="1" parent="1" source="GbOU0gRS2y6bCKz0cwMV-15" target="GbOU0gRS2y6bCKz0cwMV-24">
          <mxGeometry relative="1" as="geometry" />
        </mxCell>
        <mxCell id="GbOU0gRS2y6bCKz0cwMV-36" style="edgeStyle=orthogonalEdgeStyle;rounded=0;orthogonalLoop=1;jettySize=auto;html=1;entryX=0;entryY=0.5;entryDx=0;entryDy=0;startArrow=ERone;startFill=0;dashed=1;dashPattern=12 12;endArrow=ERmany;endFill=0;" edge="1" parent="1" source="GbOU0gRS2y6bCKz0cwMV-8" target="GbOU0gRS2y6bCKz0cwMV-21">
          <mxGeometry relative="1" as="geometry" />
        </mxCell>
      </root>
    </mxGraphModel>
  </diagram>
</mxfile>
